<svg xmlns="http://www.w3.org/2000/svg" width="80" height="71" viewBox="0 0 80 71">
    <g fill="none" fill-rule="evenodd">
        <path fill="#FFF" d="M19.05 54.54V24.557h23.923L21.06 9.359H1.305C.583 9.36 0 9.934 0 10.645V70.22s12.57-7.127 27.686-15.681H19.05"/>
        <path fill="#23A5B9" d="M79.628 25.538v-.043c-.153.029-8.385 4.434-19.04 10.443V54.54H27.685A42903.701 42903.701 0 0 0 0 70.218h78.32c.73 0 1.317-.583 1.308-1.3v-43.38"/>
        <path fill="#EF4050" d="M78.32 9.356H21.06l21.913 15.198H60.59v11.384c10.653-6.009 18.885-10.411 19.038-10.443v-14.85c0-.708-.583-1.289-1.308-1.289M37.414 3.936h9.001v3.558h4.074V0H33.314v7.49h4.1V3.937"/>
    </g>
</svg>
