<?xml version="1.0" ?><!DOCTYPE svg  PUBLIC '-//W3C//DTD SVG 1.1//EN'  'http://www.w3.org/Graphics/SVG/1.1/DTD/svg11.dtd'><svg enable-background="new 0 0 149.457 149.457" height="149.457" id="Layer_1" overflow="visible" version="1.1" viewBox="0 0 149.457 149.457" width="149.457" xml:space="preserve" xmlns="http://www.w3.org/2000/svg" xmlns:xlink="http://www.w3.org/1999/xlink"><g id="icon_2_"><circle cx="74.729" cy="74.729" fill="#FCC34F" r="74.729"/><path d="M74.895,30.289c-11.285,0-23.89,4.212-26.544,18.165c-0.265,1.486,0.81,2.269,1.778,2.484l11.49,1.234   c1.075-0.05,1.871-1.098,2.07-2.166c0.989-4.81,5.029-7.125,9.554-7.125c2.435,0,5.188,0.899,6.647,3.085   c1.646,2.438,1.434,5.775,1.434,8.595v1.532c-6.88,0.783-15.863,1.3-22.305,4.137c-7.43,3.204-12.658,9.746-12.658,19.382   c0,12.326,7.769,18.496,17.753,18.496c8.439,0,13.063-1.99,19.571-8.638c2.17,3.125,2.866,4.651,6.808,7.922   c0.882,0.464,2.017,0.425,2.799-0.279l0.04,0.021c2.375-2.104,6.674-5.858,9.096-7.875c0.969-0.803,0.803-2.076,0.04-3.145   c-2.17-3.006-4.479-5.44-4.479-11.003v-18.5c0-7.829,0.544-15.023-5.228-20.414C88.203,31.825,80.673,30.289,74.895,30.289   L74.895,30.289z M81.323,65.623v2.564c0,4.625,0.119,8.469-2.216,12.572c-1.884,3.338-4.876,5.395-8.213,5.395   c-4.551,0-7.205-3.47-7.205-8.595C63.689,67.444,72.738,65.623,81.323,65.623L81.323,65.623z M115.456,92.84   c-3.337,0.054-7.297,0.956-10.289,3.536c-0.916,0.79-0.763,1.892,0.266,1.731c3.37-0.49,10.88-1.592,12.213,0.498   c1.334,2.104-1.485,10.741-2.746,14.602c-0.378,1.168,0.431,1.659,1.294,0.776c5.612-5.752,7.052-17.8,5.904-19.538   C121.527,93.583,118.794,92.78,115.456,92.84L115.456,92.84z M27.884,95.122c-0.816-0.053-1.234,1.089-0.438,1.971   c12.452,13.8,28.899,22.099,47.189,22.099c13.043,0,28.195-5.055,38.651-14.502c1.731-1.572,0.259-3.901-1.513-2.985   c-11.709,6.104-24.447,9.035-36.024,9.035c-17.169,0-33.808-5.765-47.249-15.358C28.275,95.229,28.076,95.136,27.884,95.122   L27.884,95.122z" fill="#FFFFFF"/></g></svg>