<svg xmlns="http://www.w3.org/2000/svg" width="1600" height="801" viewBox="0 0 1600 801" fill="none"><g clip-path="url(#clip0_1113_11286)"><g clip-path="url(#clip1_1113_11286)"><path d="M1005.32 118.183C1005.32 102.932 1009.48 98.7725 1024.73 98.7725H1134.26C1174.47 98.7725 1189.72 112.637 1189.72 147.299C1189.72 172.256 1182.79 186.121 1153.67 204.145L1048.3 267.923C1041.37 272.083 1038.59 276.242 1038.59 280.402C1038.59 285.948 1044.14 288.721 1053.84 288.721H1171.7C1186.95 288.721 1191.11 292.88 1191.11 308.131V313.677C1191.11 328.929 1186.95 333.088 1171.7 333.088H1048.3C1012.25 333.088 994.226 316.45 994.226 284.561C994.226 260.991 1006.7 242.967 1030.27 227.715L1134.26 163.937C1141.19 158.391 1145.35 154.232 1145.35 150.072C1145.35 144.526 1139.81 141.753 1130.1 141.753H1026.12C1010.86 141.753 1006.7 137.594 1006.7 122.342V118.183H1005.32Z" fill="#8762A3"></path><path d="M1238.25 11.4231C1240.85 8.4794 1244.06 6.12255 1247.64 4.50839C1251.23 2.89424 1255.11 2.05957 1259.05 2.05957C1262.98 2.05957 1266.86 2.89424 1270.45 4.50839C1274.03 6.12255 1277.24 8.4794 1279.84 11.4231C1282.79 14.0304 1285.14 17.2323 1286.75 20.8174C1288.37 24.4024 1289.2 28.289 1289.2 32.2204C1289.2 36.1517 1288.37 40.0383 1286.75 43.6233C1285.14 47.2084 1282.79 50.4103 1279.84 53.0176C1274.24 58.3579 1266.79 61.3366 1259.05 61.3366C1251.3 61.3366 1243.86 58.3579 1238.25 53.0176C1232.91 47.4104 1229.93 39.9637 1229.93 32.2204C1229.93 24.477 1232.91 17.0303 1238.25 11.4231M1235.48 120.955C1235.48 104.317 1239.63 100.158 1256.27 100.158H1261.82C1278.46 100.158 1282.62 104.317 1282.62 120.955V313.676C1282.62 330.314 1278.46 334.473 1261.82 334.473H1256.27C1239.63 334.473 1235.48 330.314 1235.48 313.676V120.955Z" fill="#8762A3"></path><path d="M1551.59 238.806C1551.59 306.744 1511.38 340.019 1443.45 340.019C1371.35 340.019 1335.3 306.744 1335.3 238.806V197.212C1335.3 127.888 1368.58 93.2257 1433.74 93.2257C1467.02 93.2257 1490.59 104.318 1503.06 123.728V22.515C1503.06 5.87706 1507.22 1.71777 1523.86 1.71777H1529.41C1546.05 1.71777 1550.2 5.87725 1550.2 22.515V238.806H1551.59ZM1383.83 237.419C1383.83 277.627 1396.31 294.265 1443.45 294.265C1490.59 294.265 1503.06 277.627 1503.06 237.419V197.212C1503.06 157.004 1489.2 140.366 1443.45 140.366C1397.69 140.366 1383.83 157.004 1383.83 197.212V237.419Z" fill="#8762A3"></path><path d="M1284 636.727C1284 678.321 1278.45 710.21 1267.36 733.781C1256.92 756.529 1241.24 776.483 1221.61 792.013C1211.9 798.945 1207.74 797.559 1199.42 785.081L1195.27 779.535C1186.95 765.67 1186.95 761.51 1196.65 753.192C1223 729.622 1235.47 692.187 1235.47 640.887V513.33C1235.47 496.692 1239.63 492.533 1256.27 492.533H1261.82C1278.45 492.533 1282.61 496.692 1282.61 513.33V636.727H1284ZM1238.25 403.798C1243.77 398.298 1251.24 395.213 1259.03 395.22C1266.82 395.227 1274.29 398.325 1279.8 403.834C1285.31 409.344 1288.41 416.814 1288.42 424.605C1288.43 432.397 1285.34 439.873 1279.84 445.392C1274.32 450.892 1266.85 453.977 1259.05 453.97C1251.26 453.963 1243.79 450.865 1238.28 445.355C1232.77 439.846 1229.68 432.376 1229.67 424.584C1229.66 416.793 1232.75 409.317 1238.25 403.798" fill="#8762A3"></path><path d="M1166.15 590.972V653.364C1166.15 708.823 1135.65 737.939 1076.03 737.939H1010.86C995.612 737.939 991.453 733.78 991.453 718.528V710.209C991.453 694.958 995.612 690.799 1010.86 690.799H1076.03C1107.92 690.799 1116.24 678.321 1116.24 649.204V590.973C1116.24 552.151 1099.6 536.9 1055.23 536.9C1043.54 536.656 1031.87 538.056 1020.57 541.059C1005.32 545.219 1001.16 542.446 1001.16 525.808V520.262C1001.16 505.011 1003.93 500.851 1020.57 496.692C1032.86 493.94 1045.41 492.545 1058 492.532C1079.49 491.808 1100.84 496.08 1120.4 505.011C1150.9 520.262 1166.15 550.764 1166.15 590.972" fill="#8762A3"></path><path d="M449.338 800.33C437.751 800.703 426.206 798.765 415.376 794.629C404.546 790.493 394.648 784.241 386.259 776.24C377.87 768.238 371.159 758.646 366.516 748.024C361.873 737.401 359.392 725.96 359.217 714.369C356.284 638.665 376.083 563.817 416.063 499.464C397.203 475.058 375.304 453.159 350.898 434.299C286.015 473.033 211.543 492.732 135.994 491.145C93.0125 489.758 48.6451 459.256 50.0316 401.024C49.7049 389.399 51.7305 377.829 55.9868 367.006C60.2431 356.184 66.6424 346.334 74.8004 338.046C82.9584 329.759 92.7069 323.205 103.461 318.779C114.215 314.353 125.752 312.145 137.38 312.289C212.724 310.338 286.977 330.589 350.898 370.521C363.377 360.816 375.855 349.724 388.333 338.632C398.303 328.657 407.569 318.002 416.063 306.743C375.47 241.575 355.198 165.797 357.831 89.0651C357.832 77.1772 360.22 65.4106 364.855 54.4632C369.489 43.5158 376.274 33.6105 384.809 25.3348C393.343 17.0591 403.452 10.5816 414.537 6.28636C425.622 1.99116 437.457 -0.034224 449.339 0.330335V0.330335C461.221 -0.034184 473.056 1.99123 484.14 6.28644C495.225 10.5817 505.335 17.0592 513.869 25.3349C522.403 33.6106 529.189 43.5159 533.823 54.4633C538.457 65.4107 540.846 77.1773 540.847 89.0651V89.0651C542.323 165.848 521.623 241.428 481.228 306.743C490.186 318.467 499.913 329.583 510.344 340.019C520.734 350.498 531.854 360.228 543.62 369.135C608.935 328.74 684.514 308.04 761.298 309.516C773.185 309.517 784.952 311.906 795.899 316.54C806.847 321.174 816.752 327.96 825.028 336.494C833.304 345.028 839.781 355.138 844.076 366.223C848.371 377.307 850.397 389.142 850.032 401.024C850.397 412.906 848.371 424.741 844.076 435.826C839.781 446.91 833.303 457.02 825.028 465.554C816.752 474.088 806.847 480.874 795.899 485.508C784.952 490.142 773.185 492.531 761.298 492.532C684.566 495.165 608.788 474.893 543.62 434.3C532.361 442.794 521.706 452.059 511.731 462.029C500.035 473.559 489.365 486.084 479.842 499.464C519.154 563.655 539.354 637.721 538.074 712.983C538.339 724.644 536.215 736.236 531.831 747.045C527.448 757.855 520.898 767.652 512.585 775.835C504.273 784.018 494.373 790.413 483.496 794.625C472.619 798.838 460.995 800.78 449.339 800.331L449.338 800.33ZM449.338 552.15C424.661 602.069 412.752 657.33 414.677 712.982C414.648 717.66 415.572 722.295 417.391 726.605C419.21 730.915 421.887 734.81 425.26 738.052C428.632 741.295 432.629 743.817 437.006 745.466C441.384 747.115 446.052 747.856 450.725 747.644V747.644C455.413 747.914 460.105 747.213 464.508 745.585C468.912 743.956 472.932 741.436 476.316 738.182C479.7 734.928 482.376 731.01 484.176 726.674C485.975 722.338 486.86 717.676 486.774 712.982C487.229 657.161 474.398 602.033 449.339 552.15M396.652 401.023C406.358 409.342 414.677 417.661 424.382 425.98C432.701 434.299 441.02 444.004 449.339 453.71C457.658 444.004 465.977 434.299 475.682 424.594C484.001 416.275 492.32 409.342 500.639 402.41C491.198 394.816 482.388 386.47 474.296 377.453C465.977 369.134 457.658 359.429 449.339 351.11C442.406 359.429 434.087 367.748 427.155 376.067C416.063 384.386 406.358 392.705 396.652 401.023M596.306 401.023C647.259 427.236 704.021 440.115 761.297 438.459C766.161 438.502 770.983 437.552 775.467 435.668C779.952 433.784 784.005 431.005 787.379 427.501C790.754 423.997 793.378 419.842 795.091 415.29C796.805 410.737 797.572 405.883 797.345 401.024C797.679 396.139 796.986 391.239 795.312 386.639C793.637 382.039 791.017 377.84 787.621 374.313C784.225 370.787 780.128 368.011 775.595 366.164C771.061 364.317 766.19 363.439 761.297 363.589C703.942 361.099 646.969 374.026 596.305 401.024M145.699 364.975H138.766C134.062 364.852 129.383 365.711 125.03 367.497C120.676 369.284 116.742 371.958 113.481 375.351C110.219 378.743 107.7 382.778 106.086 387.199C104.471 391.619 103.796 396.328 104.104 401.024C103.834 405.711 104.536 410.403 106.164 414.807C107.792 419.21 110.312 423.23 113.566 426.614C116.82 429.999 120.738 432.674 125.075 434.474C129.411 436.273 134.072 437.158 138.766 437.072C194.356 438.318 249.456 426.443 299.598 402.411C252.071 377.697 199.268 364.853 145.699 364.975M449.338 53.0165C444.454 52.6826 439.554 53.3754 434.953 55.0502C430.353 56.725 426.154 59.3447 422.628 62.7406C419.101 66.1365 416.325 70.2333 414.478 74.7673C412.631 79.3012 411.754 84.1717 411.903 89.0651C410.092 146.356 422.98 203.156 449.338 254.056C476.133 203.268 489.496 146.472 488.16 89.0651V89.0651C488.159 84.0931 487.133 79.1746 485.145 74.6172C483.157 70.0598 480.251 65.9614 476.607 62.5781C472.964 59.1949 468.662 56.5996 463.97 54.9544C459.278 53.3092 454.297 52.6495 449.338 53.0165H449.338Z" fill="#FBCB62"></path></g></g><defs><clipPath id="clip0_1113_11286"><rect width="1600" height="800" fill="white" transform="translate(0 0.332031)"></rect></clipPath><clipPath id="clip1_1113_11286"><rect width="1501.59" height="800" fill="white" transform="translate(50 0.332031)"></rect></clipPath></defs></svg>